<?xml version="1.0" encoding="utf-8"?>
<!-- Generator: Adobe Illustrator 18.0.0, SVG Export Plug-In . SVG Version: 6.00 Build 0)  -->
<!DOCTYPE svg PUBLIC "-//W3C//DTD SVG 1.1//EN" "http://www.w3.org/Graphics/SVG/1.1/DTD/svg11.dtd">
<svg version="1.1" id="Layer_1" xmlns="http://www.w3.org/2000/svg" xmlns:xlink="http://www.w3.org/1999/xlink" x="0px" y="0px"
	 viewBox="213.6 0 75.4 75" enable-background="new 213.6 0 75.4 75" xml:space="preserve">
<path fill="#67A2A9" d="M277.1,74.1h-51.7c-6,0-10.8-4.8-10.8-10.8V11.7c0-6,4.9-10.8,10.8-10.8h51.7c6,0,10.8,4.8,10.8,10.8v51.5
	C287.9,69.2,283.1,74.1,277.1,74.1z M225.4,4.7c-3.9,0-7.1,3.2-7.1,7.1v51.5c0,3.9,3.2,7.1,7.1,7.1h51.7c3.9,0,7.1-3.2,7.1-7.1V11.7
	c0-3.9-3.2-7.1-7.1-7.1L225.4,4.7L225.4,4.7z"/>
<path fill="#67A2A9" d="M269.9,37.7c0,1.5-1.2,2.7-2.7,2.7h-31.1c-1.5,0-2.7-1.2-2.7-2.7l0,0c0-1.5,1.2-2.7,2.7-2.7h31
	C268.6,35,269.9,36.2,269.9,37.7L269.9,37.7z"/>
<path fill="#67A2A9" d="M269.9,23c0,1.5-1.2,2.7-2.7,2.7h-31.1c-1.5,0-2.7-1.2-2.7-2.7l0,0c0-1.5,1.2-2.7,2.7-2.7h31
	C268.6,20.3,269.9,21.5,269.9,23L269.9,23z"/>
<path fill="#67A2A9" d="M269.9,53c0,1.5-1.2,2.7-2.7,2.7h-31.1c-1.5,0-2.7-1.2-2.7-2.7l0,0c0-1.5,1.2-2.7,2.7-2.7h31
	C268.6,50.2,269.9,51.5,269.9,53L269.9,53z"/>
</svg>
